<?xml version="1.0" encoding="UTF-8" standalone="no"?><svg xmlns="http://www.w3.org/2000/svg" xmlns:xlink="http://www.w3.org/1999/xlink" contentStyleType="text/css" height="328px" preserveAspectRatio="none" style="width:445px;height:328px;background:#FFFFFF;" version="1.1" viewBox="0 0 445 328" width="445px" zoomAndPan="magnify"><defs/><g><!--MD5=[ec4e9ac521a71f7b069122f6baf1b57e]
class Pessoa--><g id="elem_Pessoa"><rect codeLine="3" fill="#F1F1F1" height="136.0469" id="Pessoa" rx="2.5" ry="2.5" style="stroke:#181818;stroke-width:0.5;" width="149" x="142.5" y="7"/><ellipse cx="189.25" cy="23" fill="#ADD1B2" rx="11" ry="11" style="stroke:#181818;stroke-width:1.0;"/><path d="M191.25,19.5 Q191.4531,19 191.6875,18.75 Q191.9219,18.5 192.1875,18.5 Q192.6563,18.5 192.9531,18.7813 Q193.25,19.0625 193.25,19.7188 L193.25,21.2813 Q193.25,21.9375 192.9688,22.2188 Q192.6875,22.5 192.25,22.5 Q191.8594,22.5 191.6094,22.3281 Q191.3594,22.1563 191.25,21.7031 Q191.2031,21.3906 191.0313,21.2188 Q190.7188,20.8906 190.1563,20.7031 Q189.5938,20.5 189.0313,20.5 Q188.3281,20.5 187.7344,20.7813 Q187.1563,21.0625 186.7031,21.6875 Q186.25,22.3125 186.25,23.1719 L186.25,24.0938 Q186.25,25.125 187.0938,25.8125 Q187.9375,26.5 189.4375,26.5 Q190.3281,26.5 190.9531,26.2969 Q191.3125,26.1875 191.7188,25.8281 Q191.9844,25.625 192.125,25.5625 Q192.2656,25.5 192.4375,25.5 Q192.7656,25.5 193,25.7656 Q193.25,26.0156 193.25,26.375 Q193.25,26.7188 192.9063,27.125 Q192.4063,27.7188 191.6094,28.0469 Q190.5625,28.5 189.2813,28.5 Q187.7813,28.5 186.5781,27.9063 Q185.6094,27.4375 184.9219,26.4219 Q184.25,25.4063 184.25,24.2031 L184.25,23.1094 Q184.25,21.8594 184.8438,20.7656 Q185.4531,19.6719 186.5,19.0938 Q187.5625,18.5 188.75,18.5 Q189.4688,18.5 190.0938,18.75 Q190.7188,19 191.25,19.5 Z " fill="#000000"/><text fill="#000000" font-family="sans-serif" font-size="14" lengthAdjust="spacing" textLength="47" x="209.75" y="28.7285">Pessoa</text><line style="stroke:#181818;stroke-width:0.5;" x1="143.5" x2="290.5" y1="39" y2="39"/><text fill="#000000" font-family="sans-serif" font-size="14" lengthAdjust="spacing" textLength="76" x="148.5" y="57.5332">String nome</text><text fill="#000000" font-family="sans-serif" font-size="14" lengthAdjust="spacing" textLength="101" x="148.5" y="75.1426">String endereco</text><text fill="#000000" font-family="sans-serif" font-size="14" lengthAdjust="spacing" textLength="92" x="148.5" y="92.752">String telefone</text><text fill="#000000" font-family="sans-serif" font-size="14" lengthAdjust="spacing" textLength="60" x="148.5" y="110.3613">String cpf</text><text fill="#000000" font-family="sans-serif" font-size="14" lengthAdjust="spacing" textLength="137" x="148.5" y="127.9707">String telefoneCelular</text><line style="stroke:#181818;stroke-width:0.5;" x1="143.5" x2="290.5" y1="135.0469" y2="135.0469"/></g><!--MD5=[2ac4372e56b643e485f07f2f0112fab2]
class Aluno--><g id="elem_Aluno"><rect codeLine="11" fill="#F1F1F1" height="118.4375" id="Aluno" rx="2.5" ry="2.5" style="stroke:#181818;stroke-width:0.5;" width="188" x="7" y="203"/><ellipse cx="78.75" cy="219" fill="#ADD1B2" rx="11" ry="11" style="stroke:#181818;stroke-width:1.0;"/><path d="M80.75,215.5 Q80.9531,215 81.1875,214.75 Q81.4219,214.5 81.6875,214.5 Q82.1563,214.5 82.4531,214.7813 Q82.75,215.0625 82.75,215.7188 L82.75,217.2813 Q82.75,217.9375 82.4688,218.2188 Q82.1875,218.5 81.75,218.5 Q81.3594,218.5 81.1094,218.3281 Q80.8594,218.1563 80.75,217.7031 Q80.7031,217.3906 80.5313,217.2188 Q80.2188,216.8906 79.6563,216.7031 Q79.0938,216.5 78.5313,216.5 Q77.8281,216.5 77.2344,216.7813 Q76.6563,217.0625 76.2031,217.6875 Q75.75,218.3125 75.75,219.1719 L75.75,220.0938 Q75.75,221.125 76.5938,221.8125 Q77.4375,222.5 78.9375,222.5 Q79.8281,222.5 80.4531,222.2969 Q80.8125,222.1875 81.2188,221.8281 Q81.4844,221.625 81.625,221.5625 Q81.7656,221.5 81.9375,221.5 Q82.2656,221.5 82.5,221.7656 Q82.75,222.0156 82.75,222.375 Q82.75,222.7188 82.4063,223.125 Q81.9063,223.7188 81.1094,224.0469 Q80.0625,224.5 78.7813,224.5 Q77.2813,224.5 76.0781,223.9063 Q75.1094,223.4375 74.4219,222.4219 Q73.75,221.4063 73.75,220.2031 L73.75,219.1094 Q73.75,217.8594 74.3438,216.7656 Q74.9531,215.6719 76,215.0938 Q77.0625,214.5 78.25,214.5 Q78.9688,214.5 79.5938,214.75 Q80.2188,215 80.75,215.5 Z " fill="#000000"/><text fill="#000000" font-family="sans-serif" font-size="14" lengthAdjust="spacing" textLength="36" x="99.25" y="224.7285">Aluno</text><line style="stroke:#181818;stroke-width:0.5;" x1="8" x2="194" y1="235" y2="235"/><text fill="#000000" font-family="sans-serif" font-size="14" lengthAdjust="spacing" textLength="76" x="13" y="253.5332">String curso</text><text fill="#000000" font-family="sans-serif" font-size="14" lengthAdjust="spacing" textLength="90" x="13" y="271.1426">double[] notas</text><line style="stroke:#181818;stroke-width:0.5;" x1="8" x2="194" y1="278.2188" y2="278.2188"/><text fill="#000000" font-family="sans-serif" font-size="14" lengthAdjust="spacing" textLength="144" x="13" y="296.752">double calcularMedia()</text><text fill="#000000" font-family="sans-serif" font-size="14" lengthAdjust="spacing" textLength="176" x="13" y="314.3613">boolean verificarAprovado()</text></g><!--MD5=[21bc47177812100412265a444b535d59]
class Professor--><g id="elem_Professor"><rect codeLine="18" fill="#F1F1F1" height="100.8281" id="Professor" rx="2.5" ry="2.5" style="stroke:#181818;stroke-width:0.5;" width="208" x="230" y="211.5"/><ellipse cx="299.25" cy="227.5" fill="#ADD1B2" rx="11" ry="11" style="stroke:#181818;stroke-width:1.0;"/><path d="M301.25,224 Q301.4531,223.5 301.6875,223.25 Q301.9219,223 302.1875,223 Q302.6563,223 302.9531,223.2813 Q303.25,223.5625 303.25,224.2188 L303.25,225.7813 Q303.25,226.4375 302.9688,226.7188 Q302.6875,227 302.25,227 Q301.8594,227 301.6094,226.8281 Q301.3594,226.6563 301.25,226.2031 Q301.2031,225.8906 301.0313,225.7188 Q300.7188,225.3906 300.1563,225.2031 Q299.5938,225 299.0313,225 Q298.3281,225 297.7344,225.2813 Q297.1563,225.5625 296.7031,226.1875 Q296.25,226.8125 296.25,227.6719 L296.25,228.5938 Q296.25,229.625 297.0938,230.3125 Q297.9375,231 299.4375,231 Q300.3281,231 300.9531,230.7969 Q301.3125,230.6875 301.7188,230.3281 Q301.9844,230.125 302.125,230.0625 Q302.2656,230 302.4375,230 Q302.7656,230 303,230.2656 Q303.25,230.5156 303.25,230.875 Q303.25,231.2188 302.9063,231.625 Q302.4063,232.2188 301.6094,232.5469 Q300.5625,233 299.2813,233 Q297.7813,233 296.5781,232.4063 Q295.6094,231.9375 294.9219,230.9219 Q294.25,229.9063 294.25,228.7031 L294.25,227.6094 Q294.25,226.3594 294.8438,225.2656 Q295.4531,224.1719 296.5,223.5938 Q297.5625,223 298.75,223 Q299.4688,223 300.0938,223.25 Q300.7188,223.5 301.25,224 Z " fill="#000000"/><text fill="#000000" font-family="sans-serif" font-size="14" lengthAdjust="spacing" textLength="61" x="319.75" y="233.2285">Professor</text><line style="stroke:#181818;stroke-width:0.5;" x1="231" x2="437" y1="243.5" y2="243.5"/><text fill="#000000" font-family="sans-serif" font-size="14" lengthAdjust="spacing" textLength="89" x="236" y="262.0332">double salario</text><text fill="#000000" font-family="sans-serif" font-size="14" lengthAdjust="spacing" textLength="114" x="236" y="279.6426">String nomeCurso</text><line style="stroke:#181818;stroke-width:0.5;" x1="231" x2="437" y1="286.7188" y2="286.7188"/><text fill="#000000" font-family="sans-serif" font-size="14" lengthAdjust="spacing" textLength="196" x="236" y="305.252">double calcularSalarioLiquido()</text></g><!--MD5=[1bfddab426e9c54fa61d5aba1b5a2206]
reverse link Pessoa to Aluno--><g id="link_Pessoa_Aluno"><path codeLine="24" d="M164.13,160.32 C155.14,174.66 145.98,189.26 137.53,202.74 " fill="none" id="Pessoa-backto-Aluno" style="stroke:#181818;stroke-width:1.0;"/><polygon fill="none" points="158.4,156.28,174.96,143.05,170.26,163.71,158.4,156.28" style="stroke:#181818;stroke-width:1.0;"/></g><!--MD5=[87ad7da4aff32fb91a7ecace934b8b83]
reverse link Pessoa to Professor--><g id="link_Pessoa_Professor"><path codeLine="25" d="M270.13,160 C281.22,177.54 292.56,195.48 302.56,211.29 " fill="none" id="Pessoa-backto-Professor" style="stroke:#181818;stroke-width:1.0;"/><polygon fill="none" points="264.18,163.7,259.41,143.05,276.01,156.21,264.18,163.7" style="stroke:#181818;stroke-width:1.0;"/></g><!--MD5=[a5447e5c340324db492dd153b0eb2e4f]
@startuml
'https://plantuml.com/class-diagram

class Pessoa {
    String nome
    String endereco
    String telefone
    String cpf
    String telefoneCelular
}

class Aluno {
    String curso
    double[] notas
    double calcularMedia()
    boolean verificarAprovado()
}

class Professor {
    double salario
    String nomeCurso
    double calcularSalarioLiquido()
}

Pessoa <|- - Aluno
Pessoa <|- - Professor

@enduml

@startuml

class Pessoa {
    String nome
    String endereco
    String telefone
    String cpf
    String telefoneCelular
}

class Aluno {
    String curso
    double[] notas
    double calcularMedia()
    boolean verificarAprovado()
}

class Professor {
    double salario
    String nomeCurso
    double calcularSalarioLiquido()
}

Pessoa <|- - Aluno
Pessoa <|- - Professor

@enduml

PlantUML version 1.2022.6(Tue Jun 21 14:34:49 GMT-03:00 2022)
(GPL source distribution)
Java Runtime: OpenJDK Runtime Environment
JVM: OpenJDK 64-Bit Server VM
Default Encoding: Cp1252
Language: en
Country: CA
--></g></svg>